# xmcd
#
# Track frame offsets: 
#        150
#        17468
#        31916
#        44594
#        65064
#        85809
#        100486
#        120219
#        141624
#        153989
#        173752
#        192602
#        220677
#        238393
#        258763
#        273565
#        289014
#        307868
#        339224
#
# Disc length: 4762 seconds
#
# Revision: 0
# Processed by: cddbd v1.5.2PL0 Copyright (c) Steve Scherf et al.
# Submitted via: ExactAudioCopy v0.95b3
#
DISCID=10129813
DTITLE=Van Morrison  - Still On Top [CD 2)
DYEAR=1900
DGENRE=
TTITLE0=01 - Precious Time
TTITLE1=02 - Domino
TTITLE2=03 - Here Comes The Night (performed by Them)
TTITLE3=04 - Little Village
TTITLE4=05 - And It Stoned Me
TTITLE5=06 - Days Like This
TTITLE6=07 - Have I Told You Lately
TTITLE7=08 - Cleaning Windows
TTITLE8=09 - Baby Please Don't Go (performed by Them)
TTITLE9=10 - Back On Top
TTITLE10=11 - Vanlose Stairway
TTITLE11=12 - Celtic New Year
TTITLE12=13 - Irish Heartbeat (with The Chieftains)
TTITLE13=14 - The Healing Game (alternative version)
TTITLE14=15 - Full Force Gale
TTITLE15=16 - Warm Love
TTITLE16=17 - Did Ye Get Healed
TTITLE17=18 - Tupelo Honey
TTITLE18=19 - Wonderful Remark
EXTD=
EXTT0=
EXTT1=
EXTT2=
EXTT3=
EXTT4=
EXTT5=
EXTT6=
EXTT7=
EXTT8=
EXTT9=
EXTT10=
EXTT11=
EXTT12=
EXTT13=
EXTT14=
EXTT15=
EXTT16=
EXTT17=
EXTT18=
PLAYORDER=
